<?xml version="1.0" standalone="no"?>
<!DOCTYPE svg PUBLIC "-//W3C//DTD SVG 20010904//EN"
 "http://www.w3.org/TR/2001/REC-SVG-20010904/DTD/svg10.dtd">
<svg version="1.0" xmlns="http://www.w3.org/2000/svg"
 width="339.000000pt" height="339.000000pt" viewBox="0 0 339.000000 339.000000"
 preserveAspectRatio="xMidYMid meet">
<metadata>
Created by potrace 1.11, written by Peter Selinger 2001-2013
</metadata>
<g transform="translate(0.000000,339.000000) scale(0.100000,-0.100000)"
fill="#000000" stroke="none">
<path d="M0 1695 l0 -1695 1695 0 1695 0 0 1695 0 1695 -280 0 -280 0 0 -32
c0 -18 -5 -87 -10 -153 -5 -66 -12 -156 -15 -200 -7 -87 -32 -303 -41 -347 -5
-26 -10 -28 -50 -28 -24 0 -44 5 -44 10 0 13 -57 13 -65 1 -3 -5 9 -11 27 -13
29 -3 34 -7 38 -38 5 -32 8 -35 42 -38 36 -3 36 -4 32 -40 -12 -83 -47 -238
-59 -257 -7 -11 -17 -42 -22 -68 l-11 -47 38 0 c37 0 78 -25 65 -38 -3 -4 -29
-9 -57 -12 l-50 -5 -33 -87 c-37 -100 -83 -191 -132 -263 -37 -54 -119 -136
-128 -127 -3 3 -5 1 -5 -5 0 -6 -29 -23 -65 -38 -54 -24 -74 -27 -122 -22 -79
8 -238 90 -355 183 -92 74 -368 340 -368 356 0 4 17 8 38 8 24 0 43 7 54 19
15 18 14 19 -21 25 -20 3 -55 6 -78 6 -39 0 -43 -2 -43 -25 0 -14 -4 -25 -10
-25 -5 0 -10 24 -10 53 0 62 -20 97 -56 97 -21 0 -24 -4 -24 -37 l0 -37 -35
34 -36 35 30 8 31 7 -68 69 c-37 37 -103 105 -147 149 l-80 82 -68 0 c-76 0
-84 7 -73 65 4 21 13 35 22 35 22 0 -90 114 -284 288 -96 85 -179 163 -185
174 -7 10 -16 18 -21 18 -16 0 -76 72 -69 83 3 5 2 7 -4 4 -6 -4 -53 34 -106
83 -94 89 -96 90 -146 90 l-51 0 0 -1695z m1193 512 c14 -44 0 -45 -41 -3
l-37 37 34 -3 c28 -2 36 -9 44 -31z m-36 -67 c39 0 43 -2 43 -25 l0 -26 -87 3
-88 3 -3 70 -3 69 48 -47 c42 -41 53 -47 90 -47z m145 -17 c21 -19 23 -33 6
-33 -7 0 -18 11 -25 25 -13 29 -7 32 19 8z"/>
<path d="M530 3384 c0 -9 299 -314 522 -531 l208 -203 51 0 c52 0 79 -15 79
-44 0 -8 9 -21 20 -29 22 -15 17 -27 -13 -27 -22 0 80 -84 228 -189 134 -96
169 -113 240 -119 53 -4 65 -8 65 -22 0 -19 36 -30 96 -30 30 0 34 -3 34 -26
0 -26 -1 -26 -65 -22 -61 4 -65 3 -65 -18 0 -12 7 -25 16 -28 27 -10 114 -7
114 5 0 7 23 8 70 3 66 -6 70 -5 70 14 0 11 -3 22 -7 25 -5 2 -2 2 5 0 8 -1
25 -3 38 -3 15 0 24 -6 24 -15 0 -8 4 -15 9 -15 5 0 25 7 44 15 20 8 50 15 66
15 26 0 31 5 45 47 20 57 20 53 -4 53 -11 0 -20 2 -20 5 0 2 20 35 44 72 57
89 119 233 101 233 -35 0 -27 67 10 76 29 7 40 30 66 129 42 166 119 562 119
618 0 14 -9 17 -49 17 l-48 0 -7 -52 c-24 -183 -84 -453 -133 -603 -18 -54
-22 -80 -14 -83 25 -8 8 -22 -29 -22 -37 0 -39 -2 -46 -36 -5 -25 -3 -39 6
-44 20 -13 -59 -138 -125 -198 -59 -54 -125 -82 -195 -82 -115 0 -308 81 -494
208 -60 41 -120 75 -133 76 -20 1 -23 6 -23 39 0 33 -3 37 -25 37 -15 0 -41
14 -62 33 -257 227 -458 432 -619 632 l-76 95 -69 0 c-38 0 -69 -3 -69 -6z
m1575 -1154 c-3 -5 -15 -10 -26 -10 -10 0 -19 5 -19 10 0 6 12 10 26 10 14 0
23 -4 19 -10z m119 -15 c-9 -14 -18 -25 -20 -25 -2 0 -4 11 -4 25 0 18 5 25
20 25 20 0 20 -1 4 -25z m96 18 c0 -4 -12 -24 -26 -45 -36 -52 -58 -36 -34 26
7 19 17 26 35 26 14 0 25 -3 25 -7z"/>
<path d="M786 3283 c125 -140 402 -412 529 -521 55 -47 110 -95 121 -108 20
-21 25 -22 91 -11 l69 11 -60 49 c-34 27 -203 193 -376 368 l-316 319 -77 0
-78 0 97 -107z"/>
<path d="M1580 3385 c0 -10 130 -89 215 -130 110 -53 131 -58 220 -59 57 -1
81 4 125 26 59 29 138 96 165 141 l17 27 -371 0 c-204 0 -371 -2 -371 -5z"/>
<path d="M2536 3253 c-47 -234 -106 -435 -162 -545 -13 -26 -24 -50 -24 -53 0
-3 21 -5 47 -3 l48 3 23 65 c56 155 105 354 141 566 l18 104 -32 0 -32 0 -27
-137z"/>
<path d="M1020 2641 c0 -5 -16 -12 -36 -16 l-36 -6 28 -30 c36 -38 44 -37 44
6 0 31 3 35 28 35 21 0 24 2 12 10 -19 12 -40 13 -40 1z"/>
<path d="M1875 2639 c5 -7 -10 -10 -46 -9 -108 3 -109 3 -109 -30 0 -16 4 -30
9 -30 5 0 16 -3 25 -6 12 -4 16 0 16 15 0 25 1 25 64 6 27 -8 60 -15 73 -15
20 0 23 5 23 40 0 38 -2 40 -31 40 -19 0 -28 -4 -24 -11z"/>
<path d="M2314 2590 c-9 -22 -22 -40 -28 -40 -7 0 -25 -14 -42 -31 -108 -113
-260 -112 -457 3 -42 25 -58 28 -130 28 l-82 0 77 -50 c227 -148 422 -202 542
-150 56 23 139 99 171 155 13 22 26 59 30 83 l7 42 -36 0 c-33 0 -38 -4 -52
-40z"/>
<path d="M2458 2198 c-5 -14 -11 -33 -14 -42 -4 -11 -1 -16 10 -16 10 0 16 -9
16 -25 0 -22 4 -25 34 -25 40 0 76 28 54 41 -7 5 -30 9 -50 9 -36 0 -37 1 -40
43 -3 37 -4 39 -10 15z"/>
<path d="M2390 2105 c-10 -12 -10 -15 4 -15 9 0 16 7 16 15 0 8 -2 15 -4 15
-2 0 -9 -7 -16 -15z"/>
</g>
</svg>
